<?xml version="1.0" encoding="UTF-8" standalone="no"?>
<svg width="398px" height="230px" viewBox="0 0 398 230" version="1.1" xmlns="http://www.w3.org/2000/svg" xmlns:xlink="http://www.w3.org/1999/xlink">
    <!-- Generator: Sketch 40.3 (33839) - http://www.bohemiancoding.com/sketch -->
    <title>Lockup02</title>
    <desc>Created with Sketch.</desc>
    <defs></defs>
    <g id="170213" stroke="none" stroke-width="1" fill="none" fill-rule="evenodd">
        <g id="170213_Accelerate_Website_LandingPage" transform="translate(-100.000000, -248.000000)" fill="#FFFFFF">
            <g id="Left">
                <g id="Lockup02" transform="translate(100.000000, 248.000000)">
                    <path d="M108.719318,228.571429 L108.719318,210.761089 L120.880896,223.484303 L120.880896,211.895161 L123.397457,211.895161 L123.397457,229.586694 L111.235879,216.895881 L111.235879,228.571429 L108.719318,228.571429 Z M141.823437,221.367368 L136.379888,211.895161 L139.274474,211.895161 L143.087118,218.559188 L146.910562,211.895161 L149.805148,211.895161 L144.339998,221.367368 L144.339998,228.571429 L141.823437,228.571429 L141.823437,221.367368 Z M174.22551,212.791619 L174.22551,215.772609 C172.77101,214.555725 171.266129,213.947293 169.710821,213.947293 C167.997103,213.947293 166.553425,214.562926 165.379744,215.794211 C164.198863,217.018295 163.608431,218.515976 163.608431,220.287298 C163.608431,222.037019 164.198863,223.513099 165.379744,224.715582 C166.560626,225.918065 168.007904,226.519297 169.721622,226.519297 C170.607283,226.519297 171.359724,226.375289 171.978967,226.08727 C172.324591,225.94326 172.68281,225.748849 173.053635,225.504032 C173.424461,225.259215 173.815082,224.963999 174.22551,224.618376 L174.22551,227.65337 C172.785411,228.467026 171.273329,228.873848 169.68922,228.873848 C167.305856,228.873848 165.271746,228.042203 163.58683,226.378888 C161.909114,224.701172 161.070268,222.677863 161.070268,220.3089 C161.070268,218.184753 161.772306,216.291051 163.176403,214.627736 C164.904523,212.589996 167.140243,211.571141 169.883633,211.571141 C171.381336,211.571141 172.828614,211.977963 174.22551,212.791619 L174.22551,212.791619 Z M227.775338,226.206077 L233.985735,226.206077 L233.985735,228.571429 L222.785418,228.571429 L228.574589,221.56178 C229.143428,220.863332 229.620454,220.258499 230.00568,219.747264 C230.390907,219.236029 230.684323,218.807605 230.885937,218.461982 C231.296365,217.785135 231.501576,217.176702 231.501576,216.636665 C231.501576,215.859011 231.227961,215.207376 230.680724,214.68174 C230.133486,214.156103 229.456649,213.893289 228.650194,213.893289 C226.965277,213.893289 226.000425,214.890543 225.755608,216.885081 L223.249848,216.885081 C223.653076,213.371238 225.427972,211.614343 228.574589,211.614343 C230.093894,211.614343 231.368362,212.096769 232.398033,213.061636 C233.434905,214.026503 233.953333,215.221767 233.953333,216.647465 C233.953333,217.554728 233.71212,218.443976 233.229687,219.315236 C232.98487,219.768867 232.62665,220.307097 232.155018,220.92994 C231.683385,221.552782 231.087553,222.289022 230.367504,223.138681 L227.775338,226.206077 Z M247.886225,220.125288 C247.886225,217.468305 248.505458,215.34779 249.743944,213.763681 C250.85282,212.330782 252.195693,211.614343 253.772601,211.614343 C255.34951,211.614343 256.692383,212.330782 257.801259,213.763681 C259.039745,215.34779 259.658978,217.504307 259.658978,220.233295 C259.658978,222.955083 259.039745,225.107999 257.801259,226.692108 C256.692383,228.125007 255.35311,228.841446 253.783402,228.841446 C252.213694,228.841446 250.867221,228.125007 249.743944,226.692108 C248.505458,225.107999 247.886225,222.919081 247.886225,220.125288 L247.886225,220.125288 Z M250.359583,220.136089 C250.359583,221.986616 250.68,223.523899 251.320845,224.747984 C251.961689,225.950467 252.778933,226.551699 253.772601,226.551699 C254.75907,226.551699 255.576314,225.950467 256.224358,224.747984 C256.872403,223.552701 257.196421,222.04422 257.196421,220.222494 C257.196421,218.400769 256.872403,216.888687 256.224358,215.686204 C255.576314,214.490921 254.75907,213.893289 253.772601,213.893289 C252.793334,213.893289 251.97969,214.490921 251.331645,215.686204 C250.683601,216.874286 250.359583,218.357566 250.359583,220.136089 L250.359583,220.136089 Z M275.946421,214.249712 L273.062636,214.249712 L274.445124,211.895161 L278.462982,211.895161 L278.462982,228.571429 L275.946421,228.571429 L275.946421,214.249712 Z M301.986887,214.249712 L293.75676,214.249712 L293.75676,211.895161 L306.188356,211.895161 L295.668483,229.143865 L293.670355,227.880184 L301.986887,214.249712 Z" id="NYC-2017" stroke="#FFFFFF" stroke-width="0.8"></path>
                    <path d="M23.8515309,176.231279 L9.57301707,176.231279 L5.85757928,184.331797 L0.435632275,184.331797 L16.9390885,148.883929 L32.8593074,184.331797 L27.3509549,184.331797 L23.8515309,176.231279 Z M21.7993996,171.500576 L16.852683,160.15985 L11.6683512,171.500576 L21.7993996,171.500576 Z M74.866795,152.772177 L74.866795,158.734159 C71.9577943,156.300391 68.9480317,155.083525 65.8374171,155.083525 C62.4099806,155.083525 59.5226247,156.314792 57.1752627,158.777362 C54.8134998,161.225531 53.632636,164.220892 53.632636,167.763537 C53.632636,171.262978 54.8134998,174.215138 57.1752627,176.620104 C59.5370257,179.02507 62.431582,180.227535 65.8590185,180.227535 C67.6303407,180.227535 69.135222,179.939519 70.3737074,179.363479 C71.0649551,179.075459 71.7813938,178.686638 72.523045,178.197005 C73.2646962,177.707371 74.0459384,177.116939 74.866795,176.425691 L74.866795,182.49568 C71.9865963,184.122992 68.962433,184.936636 65.7942143,184.936636 C61.0274854,184.936636 56.9592658,183.273346 53.5894332,179.946717 C50.2340017,176.591285 48.5563111,172.544667 48.5563111,167.80674 C48.5563111,163.558447 49.9603869,159.771042 52.7685807,156.444412 C56.2248192,152.368931 60.6962606,150.331221 66.1830392,150.331221 C69.1784459,150.331221 72.0730022,151.144865 74.866795,152.772177 L74.866795,152.772177 Z M120.611322,152.772177 L120.611322,158.734159 C117.702321,156.300391 114.692559,155.083525 111.581944,155.083525 C108.154507,155.083525 105.267151,156.314792 102.91979,158.777362 C100.558027,161.225531 99.3771628,164.220892 99.3771628,167.763537 C99.3771628,171.262978 100.558027,174.215138 102.91979,176.620104 C105.281552,179.02507 108.176109,180.227535 111.603545,180.227535 C113.374867,180.227535 114.879749,179.939519 116.118234,179.363479 C116.809482,179.075459 117.525921,178.686638 118.267572,178.197005 C119.009223,177.707371 119.790465,177.116939 120.611322,176.425691 L120.611322,182.49568 C117.731123,184.122992 114.70696,184.936636 111.538741,184.936636 C106.772012,184.936636 102.703793,183.273346 99.33396,179.946717 C95.9785285,176.591285 94.3008379,172.544667 94.3008379,167.80674 C94.3008379,163.558447 95.7049137,159.771042 98.5131075,156.444412 C101.969346,152.368931 106.440787,150.331221 111.927566,150.331221 C114.922973,150.331221 117.817529,151.144865 120.611322,152.772177 L120.611322,152.772177 Z M160.113049,155.709965 L146.741793,155.709965 L146.741793,163.724078 L159.724224,163.724078 L159.724224,168.454781 L146.741793,168.454781 L146.741793,179.601094 L160.113049,179.601094 L160.113049,184.331797 L141.708671,184.331797 L141.708671,150.979263 L160.113049,150.979263 L160.113049,155.709965 Z M186.502737,150.979263 L186.502737,179.601094 L196.309765,179.601094 L196.309765,184.331797 L181.469615,184.331797 L181.469615,150.979263 L186.502737,150.979263 Z M234.234591,155.709965 L220.863335,155.709965 L220.863335,163.724078 L233.845766,163.724078 L233.845766,168.454781 L220.863335,168.454781 L220.863335,179.601094 L234.234591,179.601094 L234.234591,184.331797 L215.830213,184.331797 L215.830213,150.979263 L234.234591,150.979263 L234.234591,155.709965 Z M266.88868,170.118088 L277.214141,184.331797 L271.057747,184.331797 L261.531537,170.679724 L260.624279,170.679724 L260.624279,184.331797 L255.591157,184.331797 L255.591157,150.979263 L261.488334,150.979263 C265.895038,150.979263 269.07761,151.807307 271.036145,153.463422 C273.196294,155.306749 274.276353,157.74048 274.276353,160.764689 C274.276353,163.126452 273.599516,165.156962 272.245823,166.856279 C270.892129,168.555596 269.106433,169.642855 266.88868,170.118088 L266.88868,170.118088 Z M260.624279,166.294643 L262.222781,166.294643 C266.98951,166.294643 269.372839,164.472944 269.372839,160.829493 C269.372839,157.416458 267.054314,155.709965 262.417194,155.709965 L260.624279,155.709965 L260.624279,166.294643 Z M316.564658,176.231279 L302.286145,176.231279 L298.570707,184.331797 L293.14876,184.331797 L309.652216,148.883929 L325.572435,184.331797 L320.064082,184.331797 L316.564658,176.231279 Z M314.512527,171.500576 L309.56581,160.15985 L304.381479,171.500576 L314.512527,171.500576 Z M351.832515,155.709965 L351.832515,184.331797 L346.799393,184.331797 L346.799393,155.709965 L339.130902,155.709965 L339.130902,150.979263 L359.479404,150.979263 L359.479404,155.709965 L351.832515,155.709965 Z M397.123412,155.709965 L383.752157,155.709965 L383.752157,163.724078 L396.734587,163.724078 L396.734587,168.454781 L383.752157,168.454781 L383.752157,179.601094 L397.123412,179.601094 L397.123412,184.331797 L378.719035,184.331797 L378.719035,150.979263 L397.123412,150.979263 L397.123412,155.709965 Z" id="ACCELERATE"></path>
                    <path d="M224.644243,70.9138787 L207.943672,43.2442396 L158.389722,125.345622 L132.288786,125.345622 L207.943672,0 L283.598558,125.345622 L257.497622,125.345622 L240.853547,97.7695853 L208.434938,97.7695853 L224.644243,70.9138787 Z" id="Logo"></path>
                </g>
            </g>
        </g>
    </g>
</svg>