<?xml version="1.0" encoding="UTF-8" standalone="no"?>
<svg width="30px" height="32px" viewBox="0 0 30 32" version="1.1" xmlns="http://www.w3.org/2000/svg" xmlns:xlink="http://www.w3.org/1999/xlink">
    <!-- Generator: Sketch 40.3 (33839) - http://www.bohemiancoding.com/sketch -->
    <title>Logo_VTSStacked</title>
    <desc>Created with Sketch.</desc>
    <defs></defs>
    <g id="170213" stroke="none" stroke-width="1" fill="none" fill-rule="evenodd">
        <g id="170213_Accelerate_Website_LandingPage" transform="translate(-1138.000000, -736.000000)" fill="#FFFFFF">
            <g id="Logo_VTSStacked" transform="translate(1138.000000, 736.000000)">
                <polygon id="Fill-1" points="12.2928762 26.7851264 12.2928762 28.0783875 14.3411682 28.0783875 14.3411682 31.6604955 15.8909232 31.6604955 15.8909232 28.0783875 17.9308855 28.0783875 17.9308855 26.7851264"></polygon>
                <path d="M25.9090207,30.1892964 C25.9090207,31.1919698 24.6949557,31.8427695 23.1660252,31.8427695 C22.2056019,31.8427695 21.3134829,31.6422348 20.6008705,31.357067 L20.6008705,30.0179456 C21.3971971,30.3364663 22.371781,30.5478407 23.2143379,30.5478407 C23.882386,30.5478407 24.5450197,30.4156796 24.5450197,30.1521912 C24.5450197,29.598949 20.4246957,30.2676759 20.4246957,28.234396 C20.4246957,27.3267785 21.3472185,26.6026023 23.0285839,26.6026023 C23.8894663,26.6026023 24.8490566,26.7401833 25.5979035,27.002004 L25.5979035,28.2698335 C24.9510963,28.0205201 23.9061259,27.8258222 22.9977637,27.8258222 C22.4150958,27.8258222 21.8924023,27.9571495 21.8924023,28.1831158 C21.8924023,28.8910324 25.9090207,28.2331452 25.9090207,30.1892964" id="Fill-2"></path>
                <polygon id="Fill-5" points="10.1754886 26.7849596 7.586594 31.6603288 6.16844952 31.6603288 3.57955493 26.7849596 5.28299426 26.7849596 6.87814649 29.9022108 8.47121628 26.7849596"></polygon>
                <polygon id="Fill-7" points="14.94212 0.142488918 14.9300418 0.150410246 6.32746495 5.86710785 9.98423691 8.28728211 14.9300418 5.00076467 14.94212 4.99284334 19.8850095 8.27769314 23.5421979 5.85751887"></polygon>
                <polygon id="Fill-9" points="14.9299169 15.4439521 4.16488838e-05 6.0838604 4.16488838e-05 12.3283686 14.9274179 21.690128 29.8597921 12.3258671 29.8597921 6.08094202"></polygon>
            </g>
        </g>
    </g>
</svg>